<svg xmlns="http://www.w3.org/2000/svg" width="80" height="22" viewBox="0 0 80 22" fill="none"><path d="M22.56 2.12004C22.56 0.786705 21.9733 0.120037 20.8 0.120037C19.68 0.0667044 19.12 0.706705 19.12 2.04004V19.96C19.12 21.24 19.68 21.88 20.8 21.88C21.9733 21.88 22.56 21.2134 22.56 19.88V2.12004ZM59.2 0.0400391C58.0267 0.146706 57.44 0.84004 57.44 2.12004V9.64004C57.44 14.1734 57.4667 17.5867 57.52 19.88C57.52 20.6267 57.7067 21.1867 58.08 21.56C58.4533 21.88 58.96 21.9867 59.6 21.88C60.4533 21.6667 60.88 21 60.88 19.88V2.12004C60.88 0.733373 60.32 0.0400391 59.2 0.0400391ZM12.96 8.60004C12.96 7.32004 12.4 6.68004 11.28 6.68004C10.7467 6.62671 10.32 6.76004 10 7.08004C9.73333 7.40004 9.6 7.88004 9.6 8.52004C9.54667 11.1867 9.54667 13.88 9.6 16.6C9.6 17.1867 9.73333 17.64 10 17.96C10.32 18.28 10.72 18.44 11.2 18.44C12.3733 18.44 12.96 17.8 12.96 16.52V8.60004ZM68.8 6.68004C68.2667 6.62671 67.84 6.7867 67.52 7.16004C67.2 7.48004 67.04 7.93337 67.04 8.52004V16.6C67.04 17.1867 67.1733 17.64 67.44 17.96C67.76 18.28 68.1867 18.44 68.72 18.44C69.2533 18.44 69.6533 18.28 69.92 17.96C70.24 17.64 70.4 17.1867 70.4 16.6C70.5067 13.88 70.5067 11.1867 70.4 8.52004C70.4 7.29337 69.8667 6.68004 68.8 6.68004ZM30.32 6.68004C29.2533 6.78671 28.72 7.37337 28.72 8.44004V16.68C28.72 17.8 29.2533 18.3867 30.32 18.44C30.8533 18.4934 31.28 18.36 31.6 18.04C31.92 17.72 32.08 17.2934 32.08 16.76C32.1867 13.9334 32.1867 11.1334 32.08 8.36004C32.08 7.82671 31.92 7.40004 31.6 7.08004C31.28 6.76004 30.8533 6.62671 30.32 6.68004ZM49.52 6.68004C48.4533 6.68004 47.92 7.29337 47.92 8.52004V16.44C47.92 17.7734 48.48 18.44 49.6 18.44C50.72 18.44 51.28 17.8 51.28 16.52V8.52004C51.28 7.93337 51.12 7.48004 50.8 7.16004C50.48 6.7867 50.0533 6.62671 49.52 6.68004ZM41.68 13.16C41.6267 12.6267 41.44 12.2 41.12 11.88C40.8 11.56 40.4267 11.4 40 11.4C39.5733 11.4 39.1733 11.56 38.8 11.88C38.48 12.2 38.32 12.6267 38.32 13.16V16.76C38.3733 17.2934 38.5333 17.72 38.8 18.04C39.12 18.36 39.5467 18.4934 40.08 18.44C41.04 18.3334 41.5733 17.8 41.68 16.84V13.16ZM1.6 11.4C0.533333 11.5067 0 12.0667 0 13.08V16.76C0 17.7734 0.533333 18.3334 1.6 18.44C2.08 18.4934 2.48 18.3867 2.8 18.12C3.17333 17.8 3.36 17.3734 3.36 16.84C3.41333 15.56 3.41333 14.2534 3.36 12.92C3.30667 12.44 3.12 12.0667 2.8 11.8C2.48 11.5334 2.08 11.4 1.6 11.4ZM80 14.92C80 14.28 80 13.6667 80 13.08C80 12.12 79.4933 11.56 78.48 11.4C78 11.3467 77.6 11.4534 77.28 11.72C76.96 11.9867 76.7733 12.36 76.72 12.84C76.56 14.28 76.56 15.6934 76.72 17.08C76.7733 17.56 76.96 17.9334 77.28 18.2C77.6 18.4134 78 18.4934 78.48 18.44C79.3867 18.3867 79.8933 17.8534 80 16.84V14.92Z" fill="#222222"></path></svg>