<svg xmlns="http://www.w3.org/2000/svg" width="80" height="18" viewBox="0 0 80 18" fill="none"><path d="M27.84 6.84012C27.7333 6.94678 27.6 7.13345 27.44 7.40012C27.28 7.61345 27.1467 7.77345 27.04 7.88012V5.96012H23.68V17.4801H27.28V11.9601C27.2267 11.4801 27.3067 11.0268 27.52 10.6001C27.7333 10.1201 28.0267 9.74678 28.4 9.48012C28.9333 9.05345 29.7867 8.89345 30.96 9.00012V5.96012C30.4267 5.80012 29.8667 5.80012 29.28 5.96012C28.7467 6.12012 28.2667 6.41345 27.84 6.84012ZM22.88 12.6801C22.88 10.7068 22.4533 9.08012 21.6 7.80012C20.8 6.68012 19.6267 5.98678 18.08 5.72012C16.5867 5.45345 15.2267 5.66678 14 6.36012C13.2 6.73345 12.56 7.32012 12.08 8.12012C11.6 8.86679 11.3067 9.69345 11.2 10.6001C10.9333 12.4668 11.2533 14.0401 12.16 15.3201C12.5333 15.9601 13.0667 16.4935 13.76 16.9201C14.4533 17.3468 15.1733 17.6134 15.92 17.7201C17.52 17.9868 18.96 17.7734 20.24 17.0801C21.52 16.3868 22.3467 15.3735 22.72 14.0401H19.28C19.0133 14.6801 18.5067 15.0801 17.76 15.2401C17.0667 15.3468 16.4267 15.2401 15.84 14.9201C15.0933 14.4401 14.6667 13.6935 14.56 12.6801H22.88ZM14.56 10.4401C14.7733 9.42678 15.2267 8.73345 15.92 8.36012C16.3467 8.20012 16.8 8.14678 17.28 8.20012C17.76 8.20012 18.16 8.36012 18.48 8.68012C18.9067 9.10678 19.1733 9.69345 19.28 10.4401H14.56ZM8.24 5.96012C8.02667 6.60012 7.73333 7.58678 7.36 8.92012C6.77333 10.8934 6.29333 12.3868 5.92 13.4001L3.68 5.96012H0C0.48 7.24012 1.14667 9.16012 2 11.7201C2.90667 14.2801 3.6 16.2001 4.08 17.4801H7.76L11.76 5.96012H10.56C9.54667 5.90678 8.77333 5.90678 8.24 5.96012ZM45.6 9.16012C45.8133 8.94678 45.9467 8.76012 46 8.60012L46.08 5.96012H36.4V8.76012C37.04 8.70678 37.9467 8.68012 39.12 8.68012C40.2933 8.68012 41.1733 8.68012 41.76 8.68012C41.8133 8.78678 41.7867 8.86678 41.68 8.92012L36.4 14.8401V17.4801H46.32V14.6801H40.64L45.6 9.16012ZM31.92 5.96012V17.4801H35.44V5.96012H31.92ZM78.16 0.200117C77.5733 1.48012 76.6667 3.42678 75.44 6.04012L73.84 9.48012C73.68 9.05345 73.4133 8.46678 73.04 7.72012C72.6667 6.92012 72.4 6.33345 72.24 5.96012C71.9733 5.90678 71.5733 5.90678 71.04 5.96012H70.4L73.12 11.7201H74.56L80 0.120117C79.2 0.120117 78.5867 0.146783 78.16 0.200117ZM70.24 8.20012C69.8133 7.13345 69.12 6.38678 68.16 5.96012C67.4667 5.69345 66.72 5.58678 65.92 5.64012C65.1733 5.69345 64.5333 5.93345 64 6.36012C63.7333 6.52012 63.4133 6.84012 63.04 7.32012L62.88 7.56012V5.96012H59.44V17.4801H62.96V11.0801C62.96 10.2801 63.2 9.61345 63.68 9.08012C64 8.76012 64.4 8.57345 64.88 8.52012C65.36 8.46678 65.8133 8.57345 66.24 8.84011C66.72 9.21345 66.96 9.77345 66.96 10.5201V17.4801H70.48V10.8401C70.48 9.66678 70.4 8.78678 70.24 8.20012ZM31.92 1.80012V5.00012H35.44V1.80012H31.92ZM56.8 7.16011C56.0533 6.52011 55.2 6.09345 54.24 5.88012C53.28 5.61345 52.2933 5.56012 51.28 5.72012C50.32 5.88012 49.44 6.28012 48.64 6.92012C47.8933 7.56012 47.3067 8.33345 46.88 9.24012C46.5067 10.1468 46.3733 11.2668 46.48 12.6001C46.5867 13.6135 46.9333 14.5468 47.52 15.4001C48.1067 16.2534 48.8533 16.8668 49.76 17.2401C50.9867 17.8268 52.2667 18.0135 53.6 17.8001C54.9867 17.5868 56.1333 17.0001 57.04 16.0401C58.2133 14.8134 58.7733 13.2935 58.72 11.4801C58.6667 9.66678 58.0267 8.22678 56.8 7.16011ZM54.4 14.4401C53.9733 14.9734 53.36 15.2401 52.56 15.2401C51.76 15.2401 51.1733 14.9734 50.8 14.4401C50.1067 13.5868 49.8667 12.3601 50.08 10.7601C50.2933 9.42678 50.8267 8.62679 51.68 8.36012C52.48 8.09345 53.2267 8.17345 53.92 8.60012C54.6133 9.13345 55.0133 10.0134 55.12 11.2401C55.2267 12.6801 54.9867 13.7468 54.4 14.4401Z" fill="#222222"></path></svg>