<svg xmlns="http://www.w3.org/2000/svg" width="80" height="20" viewBox="0 0 80 20" fill="none"><path d="M47.44 15.6797C47.0133 15.6797 46.5867 15.5464 46.16 15.2797C45.1467 14.6397 44.16 13.5997 43.2 12.1597C42.7733 11.4664 42.1333 10.4264 41.28 9.03969C40.64 7.86635 40.1333 6.98635 39.76 6.39969C38.5867 4.53302 37.44 3.17302 36.32 2.31969C34.9867 1.25302 33.5467 0.719687 32 0.719687C30.5067 0.666354 29.0667 1.14636 27.68 2.15969C26.7733 2.79969 25.84 3.78636 24.88 5.11969C24.3467 5.91969 23.6 7.14635 22.64 8.79969L21.2 11.2797C20.1867 12.8797 19.2267 14.0797 18.32 14.8797C16.72 16.053 15.1733 16.053 13.68 14.8797C12.9333 14.293 12.2667 13.5997 11.68 12.7997C11.1467 11.9464 10.4 10.7197 9.44 9.11969L8.56 7.51969C7.81333 6.34636 7.22667 5.46635 6.8 4.87969C6.16 3.97302 5.49333 3.19969 4.8 2.55969C3.46667 1.38635 2 0.77302 0.4 0.719687C0.24 0.666354 0.133333 0.666354 0.08 0.719687C0.0266667 0.77302 0 0.879687 0 1.03969V3.75969C0 4.02636 0.106667 4.15969 0.32 4.15969C1.12 4.21302 1.89333 4.58635 2.64 5.27969C3.06667 5.65302 3.54667 6.23969 4.08 7.03969C4.66667 7.78635 5.41333 8.95969 6.32 10.5597L7.6 12.7197C8.82667 14.7464 10.08 16.3197 11.36 17.4397C12.6933 18.5597 14.16 19.1464 15.76 19.1997C17.4133 19.1997 18.9333 18.6664 20.32 17.5997C21.28 16.9064 22.2933 15.7864 23.36 14.2397C23.9467 13.333 24.7733 11.9197 25.84 9.99969L26.72 8.55969C27.7333 7.01302 28.56 5.94635 29.2 5.35969C30.0533 4.55969 30.9333 4.15969 31.84 4.15969C32.7467 4.10636 33.6267 4.47969 34.48 5.27969C35.1733 5.86635 35.92 6.79969 36.72 8.07969C37.1467 8.77302 37.7867 9.81302 38.64 11.1997C39.3333 12.4264 39.8667 13.333 40.24 13.9197C41.36 15.6264 42.4533 16.9064 43.52 17.7597C44.5867 18.5597 45.8667 19.0397 47.36 19.1997C47.5733 19.253 47.7067 19.253 47.76 19.1997C47.8133 19.1464 47.84 18.9864 47.84 18.7197V16.1597C47.8933 15.9997 47.8667 15.893 47.76 15.8397C47.7067 15.7864 47.6 15.733 47.44 15.6797ZM70.8 0.719687C69.0933 0.719687 67.52 1.14635 66.08 1.99969C64.6933 2.79969 63.5733 3.91969 62.72 5.35969C61.92 6.79969 61.52 8.37302 61.52 10.0797C61.52 11.733 61.92 13.2797 62.72 14.7197C63.5733 16.1064 64.72 17.2264 66.16 18.0797C67.6 18.8797 69.1467 19.2797 70.8 19.2797C72.4533 19.2797 73.9733 18.8797 75.36 18.0797C76.8 17.2264 77.92 16.0797 78.72 14.6397C79.5733 13.1997 80 11.653 80 9.99969C80 8.29302 79.5733 6.74635 78.72 5.35969C77.92 3.91969 76.8 2.79969 75.36 1.99969C73.9733 1.14635 72.4533 0.719687 70.8 0.719687ZM70.72 15.8397C69.12 15.8397 67.7333 15.2797 66.56 14.1597C65.44 12.9864 64.88 11.5997 64.88 9.99969C64.88 8.39969 65.4667 7.03969 66.64 5.91969C67.8133 4.74636 69.1733 4.15969 70.72 4.15969C72.32 4.15969 73.68 4.74636 74.8 5.91969C75.9733 7.03969 76.56 8.39969 76.56 9.99969C76.56 11.5997 76 12.9864 74.88 14.1597C73.76 15.2797 72.3733 15.8397 70.72 15.8397ZM55.2 1.03969C55.0933 0.879687 54.9867 0.799687 54.88 0.799687C54.8267 0.799687 54.72 0.85302 54.56 0.959687C53.44 1.97302 52.8267 3.30635 52.72 4.95969V18.9597C52.72 19.173 52.8267 19.2797 53.04 19.2797H55.84C56.1067 19.2797 56.24 19.173 56.24 18.9597L56.16 5.51969C56.16 4.66635 56.3467 4.05302 56.72 3.67969C56.8267 3.57302 56.8 3.43969 56.64 3.27969L55.2 1.03969ZM31.92 10.6397C31.2267 10.6397 30.6133 10.8797 30.08 11.3597C29.6 11.8397 29.36 12.453 29.36 13.1997C29.36 13.893 29.6 14.5064 30.08 15.0397C30.6133 15.5197 31.2267 15.7597 31.92 15.7597C32.6133 15.7597 33.2 15.5197 33.68 15.0397C34.2133 14.5064 34.48 13.893 34.48 13.1997C34.48 12.5064 34.2133 11.9197 33.68 11.4397C33.2 10.9064 32.6133 10.6397 31.92 10.6397Z" fill="#222222"></path></svg>