<svg xmlns="http://www.w3.org/2000/svg" width="81" height="18" viewBox="0 0 81 18" fill="none"><path d="M8.48 15.3198H4.8C4 15.3198 3.30667 15.1332 2.72 14.7598C2.18667 14.3332 1.86667 13.6932 1.76 12.8398L7.52 12.1998C8.21333 12.1465 8.69333 11.9332 8.96 11.5598C9.28 11.1865 9.36 10.7065 9.2 10.1198C8.93333 9.15985 8.4 8.38651 7.6 7.79985C6.85333 7.21318 5.97333 6.91984 4.96 6.91984C3.52 6.91984 2.32 7.37318 1.36 8.27985C0.453333 9.18651 0 10.3598 0 11.7998C0 13.4532 0.453333 14.7332 1.36 15.6398C2.26667 16.4932 3.38667 16.9198 4.72 16.9198H9.36V16.1998C9.36 15.9332 9.28 15.7198 9.12 15.5598C8.96 15.3998 8.74667 15.3198 8.48 15.3198ZM4.96 8.43985C5.54667 8.43985 6.05333 8.57318 6.48 8.83984C6.96 9.10651 7.28 9.45318 7.44 9.87984C7.65333 10.1465 7.68 10.3598 7.52 10.5198C7.36 10.6798 7.01333 10.8132 6.48 10.9198L1.76 11.4798C1.76 10.5732 2.05333 9.85318 2.64 9.31985C3.22667 8.73318 4 8.43985 4.96 8.43985ZM17.52 7.71984V16.9998L19.28 16.9198V6.91984H18.32C17.7867 6.91984 17.52 7.18651 17.52 7.71984ZM15.04 15.4798C14.2933 15.4798 13.7867 15.4265 13.52 15.3198C13.3067 15.2132 13.2 14.9198 13.2 14.4398V8.51985H14.72C15.36 8.51985 15.68 8.25318 15.68 7.71984C15.68 7.18651 15.36 6.91984 14.72 6.91984H13.2V4.27985H12.08C11.8133 4.33318 11.6267 4.46651 11.52 4.67985L11.44 4.99985V6.91984H11.04C10.4 6.91984 10.08 7.18651 10.08 7.71984C10.08 8.25318 10.4 8.51985 11.04 8.51985H11.44V14.8398C11.44 15.7998 11.7867 16.4132 12.48 16.6798C12.9067 16.8932 13.76 16.9998 15.04 16.9998H16V16.2798C16 15.7465 15.68 15.4798 15.04 15.4798ZM19.04 5.95985C19.2 5.85318 19.28 5.58651 19.28 5.15984V4.27985H18.32C17.7867 4.27985 17.52 4.51985 17.52 4.99985V6.19984H18.16L18.48 6.11985C18.7467 6.11985 18.9333 6.06651 19.04 5.95985ZM57.84 15.4798C57.0933 15.4798 56.5867 15.4265 56.32 15.3198C56.1067 15.2132 56 14.9198 56 14.4398V8.51985H57.52C58.16 8.51985 58.48 8.25318 58.48 7.71984C58.48 7.18651 58.16 6.91984 57.52 6.91984H56V4.27985H54.88C54.56 4.33318 54.3733 4.46651 54.32 4.67985L54.24 4.99985V6.91984H53.76C53.1733 6.91984 52.88 7.18651 52.88 7.71984C52.88 8.25318 53.1733 8.51985 53.76 8.51985H54.24V14.8398C54.24 15.7998 54.5867 16.4132 55.28 16.6798C55.7067 16.8398 56.5333 16.9198 57.76 16.9198H58.8V16.2798C58.8 16.0665 58.6933 15.8798 58.48 15.7198C58.32 15.5598 58.1067 15.4798 57.84 15.4798ZM48.88 6.91984H45.2C44.56 6.91984 44.24 7.18651 44.24 7.71984C44.24 8.25318 44.56 8.51985 45.2 8.51985H48.56C49.1467 8.51985 49.5467 8.59984 49.76 8.75984C50.0267 8.91984 50.16 9.21318 50.16 9.63985V9.87984C50.1067 10.1998 49.84 10.4398 49.36 10.5998H49.28C48.9067 10.7065 48.3467 10.7865 47.6 10.8398C46.2133 10.9998 45.28 11.2398 44.8 11.5598C43.9467 12.0398 43.52 12.8665 43.52 14.0398C43.52 14.9465 43.8667 15.6665 44.56 16.1998C45.3067 16.7332 46.24 16.9998 47.36 16.9998H47.92C48.4 16.9998 48.8267 16.9198 49.2 16.7598C49.7333 16.5998 50.1067 16.3598 50.32 16.0398V16.1198C50.32 16.7065 50.6133 16.9998 51.2 16.9998H51.92V10.4398C51.92 9.37318 51.7333 8.57318 51.36 8.03984C50.88 7.29318 50.0533 6.91984 48.88 6.91984ZM50.16 13.3198C50.16 14.1732 49.9467 14.7865 49.52 15.1598C49.0933 15.4798 48.4533 15.6398 47.6 15.6398C46.0533 15.6398 45.28 15.0798 45.28 13.9598C45.28 13.5332 45.4133 13.1865 45.68 12.9198C46 12.6532 46.4 12.4665 46.88 12.3598L48.16 12.1998C49.0667 12.0932 49.7333 11.9865 50.16 11.8798V13.3198ZM41.28 4.19984C40.9067 4.19984 40.6667 4.30651 40.56 4.51984L40.48 4.91984V16.9998H42.24V4.19984H41.28ZM27.28 11.3198L24.24 10.7598C23.6 10.6532 23.2 10.5465 23.04 10.4398C22.88 10.2798 22.8 10.1198 22.8 9.95985C22.7467 9.63985 22.7733 9.34651 22.88 9.07984C23.04 8.75984 23.3067 8.57318 23.68 8.51985H27.68C28.32 8.51985 28.64 8.25318 28.64 7.71984C28.64 7.18651 28.32 6.91984 27.68 6.91984H23.68C22.72 6.91984 22 7.26651 21.52 7.95985C21.1467 8.54651 20.9867 9.26651 21.04 10.1198C21.1467 11.2398 21.92 11.9598 23.36 12.2798L26.48 12.7598C27.0133 12.8132 27.36 12.9465 27.52 13.1598C27.68 13.3198 27.76 13.6132 27.76 14.0398C27.76 14.4665 27.6 14.7865 27.28 14.9998C27.0133 15.2132 26.5067 15.3198 25.76 15.3198H21.76C21.4933 15.3198 21.2533 15.3998 21.04 15.5598C20.88 15.7198 20.8 15.9065 20.8 16.1198V16.9998H25.92C28.32 16.9998 29.52 15.9598 29.52 13.8798C29.52 12.3865 28.7733 11.5332 27.28 11.3198ZM35.76 6.91984H32.08C31.44 6.91984 31.12 7.18651 31.12 7.71984C31.12 8.25318 31.44 8.51985 32.08 8.51985H35.44C36.0267 8.51985 36.4267 8.59984 36.64 8.75984C36.9067 8.91984 37.04 9.21318 37.04 9.63985V9.87984C36.9867 10.1998 36.6933 10.4398 36.16 10.5998H36.08C35.7067 10.7065 35.1467 10.7865 34.4 10.8398C33.0667 10.9998 32.16 11.2398 31.68 11.5598C30.8267 12.0398 30.4 12.8665 30.4 14.0398C30.4 14.9465 30.7467 15.6665 31.44 16.1998C32.1333 16.7332 33.04 16.9998 34.16 16.9998C35.7067 17.0532 36.72 16.7332 37.2 16.0398V16.1198C37.2 16.7065 37.4933 16.9998 38.08 16.9998H38.8V10.4398C38.8 9.37318 38.6133 8.57318 38.24 8.03984C37.76 7.29318 36.9333 6.91984 35.76 6.91984ZM34.48 15.6398C32.9333 15.6398 32.16 15.0798 32.16 13.9598C32.16 13.5332 32.2933 13.1865 32.56 12.9198C32.88 12.6532 33.28 12.4665 33.76 12.3598L35.04 12.1998C35.9467 12.0932 36.6133 11.9865 37.04 11.8798V13.3198C37.04 14.1732 36.8267 14.7865 36.4 15.1598C35.9733 15.4798 35.3333 15.6398 34.48 15.6398ZM79.52 8.51985C79.2 7.93318 78.72 7.31985 78.08 6.67985C77.28 5.87985 76.5067 5.23984 75.76 4.75984C75.44 4.54651 74.96 4.19985 74.32 3.71985L73.76 3.39984C72.0533 2.49318 70.5867 1.82651 69.36 1.39984C68.1333 0.973178 67.1733 0.679844 66.48 0.519843C65.5733 0.359844 64.7467 0.306511 64 0.359843C63.0933 0.46651 62.3467 0.759844 61.76 1.23984L61.68 1.31985C61.68 1.37318 61.6533 1.39984 61.6 1.39984L61.52 1.55984C61.2533 1.87984 61.0667 2.30651 60.96 2.83985C60.8 3.74651 60.8533 4.65318 61.12 5.55984C61.3333 6.67984 61.7067 8.01318 62.24 9.55984L63.68 13.7198C64.1067 14.8398 64.4267 15.9598 64.64 17.0798C64.6933 17.3465 64.7467 17.5065 64.8 17.5598C64.9067 17.6132 65.0933 17.5865 65.36 17.4798L67.6 16.6798C68.3467 16.4132 69.52 16.0665 71.12 15.6398L72.4 15.2398C73.84 14.8132 74.9067 14.4665 75.6 14.1998C76.6667 13.8798 77.6267 13.3998 78.48 12.7598C79.0667 12.3332 79.4933 11.8532 79.76 11.3198L79.92 10.9198L80 10.5198C80.0533 9.93318 79.8933 9.26651 79.52 8.51985ZM72.96 11.5598C72.6933 11.8798 72.1867 12.2798 71.44 12.7598L71.28 12.8398C70.6933 13.2132 70 13.5332 69.2 13.7998C68.6667 13.9598 68.1333 14.0398 67.6 14.0398C66.9067 14.0932 66.3733 13.7998 66 13.1598C65.68 12.5198 65.4133 11.6665 65.2 10.5998C65.04 9.95985 64.96 9.34651 64.96 8.75984C64.96 8.01318 65.04 7.45318 65.2 7.07984C65.4667 6.33318 66.0533 5.87985 66.96 5.71984C67.7067 5.61318 68.6667 5.74651 69.84 6.11985C70.7467 6.43984 71.52 6.91984 72.16 7.55984C72.9067 8.14651 73.36 8.86651 73.52 9.71984C73.68 10.4132 73.4933 11.0265 72.96 11.5598Z" fill="#222222"></path></svg>