<svg xmlns="http://www.w3.org/2000/svg" width="81" height="36" viewBox="0 0 81 36" fill="none"><path d="M68.92 23.04C60.0667 22.3467 51.08 22.4534 41.96 23.36C34.8133 24.1067 27.96 25.28 21.4 26.88C16.3867 28.16 12.68 29.36 10.28 30.48C8.89334 31.12 7.98667 31.8667 7.56001 32.72C7.18667 33.4134 7.13334 34.0534 7.40001 34.64C7.61334 35.0667 8.04001 35.3334 8.68001 35.44C9.32001 35.5467 10.0133 35.3867 10.76 34.96C14.7067 32.8267 19.7467 30.9334 25.88 29.28C32.2267 27.6267 38.9733 26.4267 46.12 25.68C53.9067 24.8267 61.48 24.64 68.84 25.12C69.2133 25.12 69.5067 24.96 69.72 24.64C69.9333 24.32 69.96 23.9734 69.8 23.6C69.6933 23.2267 69.4 23.04 68.92 23.04ZM76.2 14.24C75.56 14.9867 74.8667 15.5734 74.12 16C73.3733 16.3734 72.8667 16.4534 72.6 16.24C72.3333 15.9734 72.2533 15.52 72.36 14.88L72.6 14C74.4667 12.8267 76.2267 11.36 77.88 9.60002C79.96 7.36002 81 5.41336 81 3.76002C81 2.64002 80.7067 1.78669 80.12 1.20002C79.5333 0.613355 78.76 0.426687 77.8 0.640021C76.84 0.800022 75.8267 1.41336 74.76 2.48002C73.6933 3.49335 72.68 4.90669 71.72 6.72002C70.76 8.48002 69.96 10.3734 69.32 12.4C66.76 14.96 64.5733 16.24 62.76 16.24C61.64 16.24 61.1333 15.5467 61.24 14.16C62.0933 14.1067 63.0533 13.8934 64.12 13.52C65.4533 13.04 66.52 12.3734 67.32 11.52C68.3334 10.4534 68.84 9.22669 68.84 7.84002C68.7867 6.93336 68.44 6.21336 67.8 5.68002C67.2133 5.25336 66.52 5.04002 65.72 5.04002C64.44 5.04002 63.1067 5.65335 61.72 6.88002C60.3333 8.05335 59.24 9.52002 58.44 11.28C57.9067 11.1734 57.5067 11.0134 57.24 10.8C57.72 9.73336 58.04 8.80002 58.2 8.00002C58.3067 7.04002 58.1733 6.29335 57.8 5.76002C57.48 5.17336 56.92 4.90669 56.12 4.96002C55.5867 4.96002 55.08 5.22669 54.6 5.76002C54.12 6.24002 53.8267 6.98669 53.72 8.00002C53.6133 8.58669 53.6667 9.28002 53.88 10.08L54.2 11.04C53.88 12.0534 53.2133 13.12 52.2 14.24C51.1867 15.36 50.4133 15.92 49.88 15.92C49.1867 15.8667 49.5333 13.5734 50.92 9.04002C51.6133 8.40002 52.0133 7.78669 52.12 7.20002C52.3333 6.34669 52.2 5.78669 51.72 5.52002C51.2933 5.25335 50.7067 5.25335 49.96 5.52002C49.2133 5.73335 48.6 6.26669 48.12 7.12002C47.64 7.97335 47.2933 8.72002 47.08 9.36002C45.7467 10.8 44.9733 11.4667 44.76 11.36C44.6 11.2534 44.5733 11.04 44.68 10.72C44.7333 10.5067 44.8667 10.1334 45.08 9.60002C45.56 8.48002 45.7733 7.70669 45.72 7.28002C45.6133 6.64002 45.3467 6.16002 44.92 5.84002C44.4933 5.52002 44.04 5.41335 43.56 5.52002C43.08 5.57336 42.52 5.89336 41.88 6.48002C41.4533 6.90669 41 7.44002 40.52 8.08002L39.96 8.88002L40.2 8.32002C40.3067 7.84002 40.3333 7.44002 40.28 7.12002C40.28 6.74669 40.0667 6.48002 39.64 6.32002C39.2667 6.10669 38.8133 6.10669 38.28 6.32002C37.8 6.53335 37.4 6.96002 37.08 7.60002C36.76 8.24002 36.2533 10.2667 35.56 13.68L35.48 13.76C34.0933 16.2134 32.9467 17.4934 32.04 17.6C31.72 17.6 31.5867 17.1734 31.64 16.32C31.64 15.68 31.7733 14.8534 32.04 13.84C32.2533 12.9334 32.3867 12.4267 32.44 12.32C32.76 11.7867 33.0533 11.12 33.32 10.32C33.64 9.52002 33.7733 8.90669 33.72 8.48002C33.6667 7.94669 33.48 7.57335 33.16 7.36002C32.84 7.14669 32.44 7.09336 31.96 7.20002C31.5333 7.25336 31.1333 7.49335 30.76 7.92002L30.36 8.56002L30.12 8.32002C29.96 8.16002 29.72 8.02669 29.4 7.92002C29.08 7.76002 28.7067 7.70669 28.28 7.76002C26.84 7.92002 25.5067 8.77336 24.28 10.32C23.2133 11.7067 22.36 13.36 21.72 15.28C21.1333 17.2 20.92 18.8534 21.08 20.24C21.1867 21.2534 21.48 22.0534 21.96 22.64C22.4933 23.1734 23.1867 23.4134 24.04 23.36C24.6267 23.3067 25.24 22.9867 25.88 22.4C26.3067 21.9734 26.7333 21.4667 27.16 20.88L27.64 20.08L27.88 20.72C28.04 21.1467 28.28 21.4934 28.6 21.76C29.08 22.1334 29.64 22.2667 30.28 22.16C31.56 21.9467 32.9467 20.9867 34.44 19.28L34.36 19.6C34.36 19.7067 34.3333 19.7867 34.28 19.84C34.2267 20.48 34.44 20.9067 34.92 21.12C35.4533 21.3334 36.0133 21.3334 36.6 21.12C37.1867 20.9067 37.5067 20.5334 37.56 20C37.88 17.6534 38.36 15.5734 39 13.76C39.5333 12.32 40.12 11.1467 40.76 10.24C41.24 9.49335 41.64 9.12002 41.96 9.12002C42.0667 9.12002 42.0933 9.22669 42.04 9.44002L41.8 10.32C41.48 11.2267 41.2933 11.8934 41.24 12.32C41.1333 13.1734 41.2667 13.8134 41.64 14.24C42.4933 15.2 43.9067 14.8534 45.88 13.2C45.6133 14.2667 45.48 15.28 45.48 16.24C45.4267 17.4134 45.64 18.3734 46.12 19.12C46.6 19.8134 47.3467 20.1334 48.36 20.08C49.64 20.0267 51.0267 19.28 52.52 17.84C53.8 16.6134 54.9733 15.0667 56.04 13.2C56.4133 13.52 56.9467 13.76 57.64 13.92C57.5333 14.9867 57.48 15.7867 57.48 16.32C57.5333 17.5467 57.9333 18.4534 58.68 19.04C59.4267 19.5734 60.3333 19.8134 61.4 19.76C63.4267 19.76 65.7733 18.5867 68.44 16.24V16.56C68.3333 17.36 68.3867 18.08 68.6 18.72C68.8667 19.6267 69.4 20.1067 70.2 20.16C71.16 20.2667 72.3867 19.8934 73.88 19.04C75.3733 18.1867 76.5467 17.2 77.4 16.08C77.7733 15.6 77.9067 15.1467 77.8 14.72C77.7467 14.24 77.5333 13.9467 77.16 13.84C76.84 13.7334 76.52 13.8667 76.2 14.24ZM77.96 3.68002C78.1733 3.68002 78.28 3.81335 78.28 4.08002C78.28 4.72002 77.8267 5.62669 76.92 6.80002C76.2267 7.65335 75.3467 8.58669 74.28 9.60002L72.92 10.88L73.88 9.04002C74.68 7.60002 75.3734 6.42669 75.96 5.52002C76.8667 4.29335 77.5333 3.68002 77.96 3.68002ZM65 8.32002C65.48 8.32002 65.72 8.53335 65.72 8.96002C65.72 9.54669 65.3733 10.0534 64.68 10.48C64.04 10.9067 63.24 11.1467 62.28 11.2C62.7067 10.4 63.16 9.73335 63.64 9.20002C64.1733 8.61335 64.6267 8.32002 65 8.32002ZM28.92 11.68C28.8133 12.5334 28.3333 13.8934 27.48 15.76C26.5733 17.7867 25.8533 18.8267 25.32 18.88C24.7867 18.88 24.6267 18.16 24.84 16.72C25.1067 15.28 25.5867 13.9467 26.28 12.72C27.08 11.28 27.8533 10.56 28.6 10.56C28.8133 10.56 28.9467 10.6667 29 10.88C29.0533 11.04 29.0267 11.3067 28.92 11.68ZM9.24001 13.28C9.61334 13.28 9.77334 13.8134 9.72001 14.88C9.66667 15.52 9.48001 16.72 9.16001 18.48C8.57334 21.52 8.30667 23.5467 8.36001 24.56C8.46667 25.5734 8.84001 26.24 9.48001 26.56C10.1733 26.88 10.8133 26.8534 11.4 26.48C12.04 26.1067 12.3333 25.6 12.28 24.96C12.12 23.84 12.2267 22.16 12.6 19.92C13.0267 17.6267 13.56 15.6534 14.2 14C14.9467 12.08 15.6667 11.12 16.36 11.12C16.7333 11.12 16.8667 11.4934 16.76 12.24C16.7067 12.72 16.52 13.68 16.2 15.12C15.7733 16.8267 15.5067 18.1334 15.4 19.04C15.1333 20.5867 15.08 21.8667 15.24 22.88C15.4 23.8934 15.8267 24.5334 16.52 24.8C17.2133 25.0134 17.88 24.9334 18.52 24.56C19.16 24.1867 19.4267 23.7067 19.32 23.12C19 21.5734 18.9733 19.8667 19.24 18C19.4533 16.9334 19.88 15.36 20.52 13.28C20.9467 11.84 21.24 10.7734 21.4 10.08C21.6667 8.96002 21.7467 8.00002 21.64 7.20002C21.5333 6.40002 21.24 5.76002 20.76 5.28002C20.3333 4.80002 19.8267 4.56002 19.24 4.56002C18.12 4.56002 16.9733 5.22669 15.8 6.56002C15 7.52002 14.2 8.77336 13.4 10.32L12.52 12.32V11.2C12.4133 10.2934 12.2 9.57335 11.88 9.04002C11.4 8.24002 10.7333 7.81335 9.88001 7.76002C8.38667 7.65335 6.92001 8.66669 5.48001 10.8C4.14667 12.88 3.05334 15.5734 2.20001 18.88C1.34667 22.1867 0.946673 25.4934 1.00001 28.8C1.00001 29.8134 1.32001 30.48 1.96001 30.8C2.65334 31.12 3.32001 31.0934 3.96001 30.72C4.60001 30.2934 4.89334 29.68 4.84001 28.88C4.73334 27.3334 4.89334 25.3067 5.32001 22.8C5.74667 20.24 6.33334 18.0534 7.08001 16.24C7.82667 14.2667 8.54667 13.28 9.24001 13.28Z" fill="#222222"></path></svg>