<svg xmlns="http://www.w3.org/2000/svg" width="80" height="22" viewBox="0 0 80 22" fill="none"><path d="M62 0.43978C62.32 0.43978 62.5867 0.546446 62.8 0.75978C63.0667 0.973112 63.2 1.26645 63.2 1.63978V20.3598C63.2 20.7331 63.0667 21.0531 62.8 21.3198C62.5867 21.5331 62.32 21.6398 62 21.6398H60.24C59.8667 21.6398 59.5733 21.5331 59.36 21.3198C59.1467 21.0531 59.04 20.7331 59.04 20.3598V1.63978C59.04 1.26645 59.1467 0.973112 59.36 0.75978C59.5733 0.546446 59.8667 0.43978 60.24 0.43978H62ZM66.16 3.63978C66 3.63978 65.84 3.58644 65.68 3.47978C65.5733 3.37311 65.52 3.21311 65.52 2.99978V2.11978C65.52 1.69311 65.7333 1.42645 66.16 1.31978L78.56 0.119778C78.8267 0.0664456 79.0667 0.173113 79.28 0.43978C79.4933 0.653114 79.6 0.893113 79.6 1.15978V2.67978C79.6 2.94645 79.4933 3.18644 79.28 3.39978C79.0667 3.55978 78.8267 3.63978 78.56 3.63978H66.16ZM57.28 6.19978C57.5467 6.19978 57.76 6.27978 57.92 6.43978C58.08 6.59978 58.16 6.81311 58.16 7.07978V8.27978C58.16 8.49311 58.08 8.70645 57.92 8.91978C57.76 9.07978 57.5467 9.15978 57.28 9.15978H54.56V16.1198C54.56 16.8131 54.7467 17.3731 55.12 17.7998C55.5467 18.2264 56.1333 18.4398 56.88 18.4398H57.12C57.3867 18.4398 57.6 18.5464 57.76 18.7598C57.9733 18.9198 58.08 19.1064 58.08 19.3198V20.6798C58.08 20.8931 57.9733 21.1064 57.76 21.3198C57.6 21.5331 57.3867 21.6398 57.12 21.6398H55.44C54 21.6398 52.8 21.1598 51.84 20.1998C50.9333 19.1864 50.48 18.0131 50.48 16.6798V9.15978H49.6C49.3867 9.15978 49.1733 9.07978 48.96 8.91978C48.8 8.70645 48.72 8.49311 48.72 8.27978V7.07978C48.72 6.81311 48.8 6.59978 48.96 6.43978C49.1733 6.27978 49.3867 6.19978 49.6 6.19978H50.48V1.55978C50.48 1.23978 50.5867 0.973112 50.8 0.75978C51.0133 0.546446 51.28 0.43978 51.6 0.43978H53.36C53.7333 0.43978 54.0267 0.546446 54.24 0.75978C54.4533 0.973112 54.56 1.23978 54.56 1.55978V6.19978H57.28ZM26.64 5.63978C29.1467 5.63978 31.12 6.46645 32.56 8.11978C33.7867 9.61311 34.4 11.4531 34.4 13.6398C34.4 14.5464 33.9467 14.9998 33.04 14.9998H23.04C23.1467 15.9598 23.52 16.7864 24.16 17.4798C24.8 18.1198 25.6267 18.4398 26.64 18.4398C28.0267 18.4398 29.0667 17.9331 29.76 16.9198C30.0267 16.5998 30.3467 16.4398 30.72 16.4398H33.12C33.3867 16.4398 33.5733 16.5464 33.68 16.7598C33.84 16.9198 33.8933 17.1064 33.84 17.3198C33.52 18.7064 32.6667 19.8264 31.28 20.6798C29.8933 21.4798 28.3467 21.8798 26.64 21.8798C24.2933 21.8798 22.4 21.0798 20.96 19.4798C19.5733 17.8798 18.88 15.9331 18.88 13.6398C18.88 11.4531 19.5467 9.61311 20.88 8.11978C22.3733 6.46645 24.2933 5.63978 26.64 5.63978ZM23.12 11.9598H30.24C30.1867 11.1064 29.7867 10.3864 29.04 9.79978C28.3467 9.15978 27.5467 8.83978 26.64 8.83978C25.7333 8.83978 24.9333 9.13311 24.24 9.71978C23.6 10.3064 23.2267 11.0531 23.12 11.9598ZM80 13.6398C80 14.5464 79.5467 14.9998 78.64 14.9998H68.64C68.7467 15.9598 69.12 16.7864 69.76 17.4798C70.4 18.1198 71.2267 18.4398 72.24 18.4398C73.6267 18.4398 74.6667 17.9331 75.36 16.9198C75.6267 16.5998 75.9733 16.4398 76.4 16.4398H78.72C78.9867 16.4398 79.1733 16.5464 79.28 16.7598C79.44 16.9198 79.4933 17.1064 79.44 17.3198C79.12 18.7064 78.2667 19.8264 76.88 20.6798C75.5467 21.4798 74.0267 21.8798 72.32 21.8798C69.9733 21.8798 68.0533 21.0531 66.56 19.3998C65.1733 17.8531 64.48 15.9331 64.48 13.6398C64.48 11.4531 65.1467 9.61311 66.48 8.11978C67.9733 6.46645 69.8933 5.63978 72.24 5.63978C74.7467 5.63978 76.72 6.46645 78.16 8.11978C79.3867 9.61311 80 11.4531 80 13.6398ZM68.72 11.9598H75.84C75.7867 11.1064 75.3867 10.3864 74.64 9.79978C73.9467 9.15978 73.1467 8.83978 72.24 8.83978C71.3333 8.83978 70.5333 9.13311 69.84 9.71978C69.2 10.3064 68.8267 11.0531 68.72 11.9598ZM47.12 3.79978H17.52V20.2798C17.52 20.6531 17.3867 20.9731 17.12 21.2398C16.8533 21.5064 16.5333 21.6398 16.16 21.6398H13.76C12.9067 21.6398 12.1867 21.2398 11.6 20.4398C11.4933 20.2264 10.24 17.9331 7.84 13.5598L4.32 7.15978L4.4 20.2798C4.4 20.6531 4.26667 20.9731 4 21.2398C3.73333 21.4531 3.41333 21.5598 3.04 21.5598H1.36C0.986667 21.5598 0.666667 21.4531 0.4 21.2398C0.133333 20.9731 0 20.6531 0 20.2798V1.55978C0 1.18645 0.133333 0.893112 0.4 0.679778C0.666667 0.413111 0.986667 0.27978 1.36 0.27978H4C4.48 0.27978 4.90667 0.386446 5.28 0.59978C5.65333 0.813114 5.92 1.07978 6.08 1.39978L13.44 14.6798L13.36 1.95978C13.36 1.58645 13.4667 1.26645 13.68 0.999779C13.9467 0.733113 14.2667 0.59978 14.64 0.59978H47.12C47.3867 0.59978 47.6 0.67978 47.76 0.839779C47.92 0.999779 48 1.21311 48 1.47978V2.83978C48 3.10645 47.92 3.34644 47.76 3.55978C47.6 3.71978 47.3867 3.79978 47.12 3.79978ZM44.88 12.4398C46.1067 12.7598 47.0667 13.2931 47.76 14.0398C48.4533 14.7864 48.8 15.7198 48.8 16.8398C48.8 18.5998 48.0267 19.9064 46.48 20.7598C45.2 21.5064 43.68 21.8798 41.92 21.8798C40 21.8798 38.3467 21.4264 36.96 20.5198C35.6267 19.5598 34.96 18.5198 34.96 17.3998V17.1598C34.96 16.9464 35.04 16.7864 35.2 16.6798C35.36 16.5198 35.5467 16.4398 35.76 16.4398H37.68C38 16.4398 38.24 16.4931 38.4 16.5998C38.6133 16.6531 38.7733 16.7864 38.88 16.9998C39.0933 17.4798 39.4933 17.8798 40.08 18.1998C40.6667 18.4664 41.28 18.5998 41.92 18.5998C43.7333 18.5998 44.64 18.0398 44.64 16.9198C44.64 16.3864 44.08 15.9598 42.96 15.6398C42.16 15.4264 40.96 15.1331 39.36 14.7598C38.1333 14.4398 37.1467 13.9331 36.4 13.2398C35.7067 12.5464 35.36 11.6398 35.36 10.5198C35.36 9.02645 35.9467 7.85311 37.12 6.99978C38.2933 6.09311 39.84 5.63978 41.76 5.63978C43.68 5.63978 45.2533 6.06645 46.48 6.91978C47.7067 7.71978 48.32 8.70645 48.32 9.87978C48.32 10.0931 48.24 10.2798 48.08 10.4398C47.9733 10.5464 47.84 10.5998 47.68 10.5998H45.68C45.1467 10.5998 44.8267 10.4398 44.72 10.1198C44.5067 9.69311 44.1333 9.34645 43.6 9.07978C43.12 8.81311 42.5333 8.67978 41.84 8.67978C40.24 8.67978 39.44 9.21311 39.44 10.2798C39.44 10.8131 40.0267 11.2398 41.2 11.5598C41.52 11.6131 42.7467 11.9064 44.88 12.4398Z" fill="#222222"></path></svg>