<svg xmlns="http://www.w3.org/2000/svg" width="80" height="34" viewBox="0 0 80 34" fill="none"><path d="M16.4 15.4004C15.5467 15.4004 14.8 15.6138 14.16 16.0404C13.5733 16.4138 13.1467 16.9471 12.88 17.6404H12.8C12.9067 16.8938 12.96 16.2271 12.96 15.6404H10.72V31.2404H13.04V26.5204C13.4133 26.5738 13.9733 26.6004 14.72 26.6004C16.5333 26.6004 17.92 26.0671 18.88 25.0004C19.84 23.9338 20.32 22.4404 20.32 20.5204C20.3733 18.8671 20.0533 17.6138 19.36 16.7604C18.6667 15.8538 17.68 15.4004 16.4 15.4004ZM14.8 24.7604C14 24.7604 13.4133 24.7071 13.04 24.6004V21.2404C13.04 20.2271 13.28 19.3204 13.76 18.5204C14.24 17.7204 14.9067 17.3204 15.76 17.3204C17.2 17.3204 17.92 18.4671 17.92 20.7604C17.92 23.4271 16.88 24.7604 14.8 24.7604ZM2.48 15.5604C2.48 14.9204 2.72 14.4138 3.2 14.0404C3.68 13.6671 4.34667 13.4804 5.2 13.4804C6.10667 13.4804 7.01333 13.6138 7.92 13.8804L8.08 11.8004C6.90667 11.5871 6.02667 11.4804 5.44 11.4804C3.73333 11.4804 2.4 11.8804 1.44 12.6804C0.48 13.4804 0 14.5204 0 15.8004C0 16.9738 0.4 17.9071 1.2 18.6004C1.68 19.0271 2.53333 19.4538 3.76 19.8804C4.66667 20.2538 5.30667 20.5738 5.68 20.8404C6.21333 21.2138 6.48 21.7204 6.48 22.3604C6.48 23.1071 6.18667 23.6938 5.6 24.1204C5.06667 24.4938 4.37333 24.6804 3.52 24.6804C2.45333 24.6804 1.44 24.4938 0.48 24.1204L0.32 26.3604C1.12 26.5738 2.10667 26.6804 3.28 26.6804C5.04 26.6804 6.42667 26.2538 7.44 25.4004C8.45333 24.5471 8.96 23.4271 8.96 22.0404C8.96 20.9204 8.56 20.0138 7.76 19.3204C7.28 18.8938 6.42667 18.4404 5.2 17.9604C4.24 17.5871 3.6 17.2671 3.28 17.0004C2.74667 16.6271 2.48 16.1471 2.48 15.5604ZM60 28.3604C62.4 26.7071 64.9333 24.6271 67.6 22.1204C70.48 19.5604 72.4533 17.4804 73.52 15.8804L73.6 15.8004C73.92 15.3738 74.1333 15.0538 74.24 14.8404C74.4 14.5204 74.48 14.2004 74.48 13.8804C74.48 13.3471 74.1867 12.7871 73.6 12.2004C73.28 11.8804 72.72 11.4538 71.92 10.9204H71.84C70.6133 13.7471 68.72 17.0004 66.16 20.6804C63.9733 23.7738 61.92 26.3338 60 28.3604ZM63.68 7.88043C63.4667 7.0271 63.04 6.20043 62.4 5.40043C61.8133 4.60043 61.1733 4.06709 60.48 3.80043C61.28 6.1471 62.0533 8.9471 62.8 12.2004C63.4933 15.1338 63.9467 17.5604 64.16 19.4804C64.48 17.6138 64.56 15.5604 64.4 13.3204C64.2933 11.2938 64.0533 9.48043 63.68 7.88043ZM63.52 23.4804C65.1733 21.3471 66.5333 19.1871 67.6 17.0004C68.6667 14.7071 69.2 12.7338 69.2 11.0804C69.2 9.53376 68.2133 8.20043 66.24 7.08043C66.24 9.1071 65.9733 11.8271 65.44 15.2404C64.8533 18.9204 64.2133 21.6671 63.52 23.4804ZM24.4 18.0404H24.32C24.48 17.1338 24.56 16.3338 24.56 15.6404H22.32V26.4404H24.64V22.0404C24.64 18.7871 25.7067 17.3471 27.84 17.7204L28 15.4004C26.1867 15.2404 24.9867 16.1204 24.4 18.0404ZM50.08 22.6004V17.4004H52.88V15.6404H50V11.5604L47.68 12.1204V15.6404H45.6V17.4004H47.68V23.3204C47.68 24.5471 47.8933 25.4271 48.32 25.9604C48.7467 26.4404 49.5467 26.6804 50.72 26.6804C51.52 26.6804 52.24 26.6004 52.88 26.4404V24.5204C52.3467 24.6271 51.84 24.6804 51.36 24.6804C50.88 24.6804 50.5333 24.5471 50.32 24.2804C50.16 24.0138 50.08 23.4538 50.08 22.6004ZM76.64 15.0004C73.7067 18.0404 69.7867 21.5071 64.88 25.4004C59.9733 29.2404 56.0267 31.9604 53.04 33.5604C56.6667 32.3338 60.9867 30.4138 66 27.8004C70.6933 25.3471 74.9867 22.7604 78.88 20.0404C79.6267 19.5604 80 19.0538 80 18.5204C80 17.9871 79.5733 17.3204 78.72 16.5204C78.08 15.9338 77.3867 15.4271 76.64 15.0004ZM52.88 0.44043C54.9067 2.6271 58.0267 6.84043 62.24 13.0804L62.88 13.9604C61.8667 11.1871 60.6667 8.7071 59.28 6.52043C57.2533 3.32043 55.12 1.29376 52.88 0.44043ZM41.04 15.4004C40.1333 15.4004 39.36 15.6138 38.72 16.0404C38.08 16.4671 37.6 17.0271 37.28 17.7204C37.3867 16.9738 37.44 16.2804 37.44 15.6404H35.2V26.4404H37.52V21.2404C37.52 20.1738 37.7867 19.2671 38.32 18.5204C38.8533 17.7204 39.52 17.3204 40.32 17.3204C40.9067 17.3204 41.3333 17.5071 41.6 17.8804C41.8667 18.2538 42 18.7871 42 19.4804V26.4404H44.24V18.8404C44.2933 17.7738 44.0533 16.9471 43.52 16.3604C43.04 15.7204 42.2133 15.4004 41.04 15.4004ZM30 15.6404H32.32V26.4404H30V15.6404ZM31.2 11.0804C30.7733 11.0804 30.4 11.2404 30.08 11.5604C29.8133 11.8271 29.68 12.1471 29.68 12.5204C29.68 12.8938 29.8133 13.2404 30.08 13.5604C30.4 13.8271 30.7733 13.9604 31.2 13.9604C31.6267 13.9604 31.9733 13.8271 32.24 13.5604C32.56 13.2404 32.72 12.8938 32.72 12.5204C32.72 12.1471 32.56 11.8271 32.24 11.5604C31.9733 11.2404 31.6267 11.0804 31.2 11.0804Z" fill="#222222"></path></svg>