<svg xmlns="http://www.w3.org/2000/svg" width="80" height="16" viewBox="0 0 80 16" fill="none"><path d="M23.92 0.799984H30.64L36.88 15.28H31.84L30.88 12.64H23.68L22.72 15.28H17.76L23.92 0.799984ZM24.88 9.51998H29.68L27.68 3.99998H26.88L24.88 9.51998ZM13.04 9.59998H17.84C17.84 10.7733 17.7333 11.68 17.52 12.32C17.36 12.96 17.0133 13.5466 16.48 14.08C15.84 14.72 14.88 15.12 13.6 15.28C12.7467 15.3867 11.2 15.44 8.96 15.44C6.72 15.44 5.04 15.3333 3.92 15.12C2.85333 14.9066 2 14.5066 1.36 13.92C0.773333 13.3333 0.4 12.6667 0.24 11.92C0.08 11.12 0 9.81332 0 7.99998C0 6.13332 0.08 4.82665 0.24 4.07998C0.4 3.27998 0.773333 2.58665 1.36 1.99998C2 1.35999 2.88 0.933316 4 0.719982C4.96 0.559981 6.61333 0.47998 8.96 0.47998C11.3067 0.47998 12.9333 0.559981 13.84 0.719982C14.9067 0.879982 15.7067 1.22665 16.24 1.75998C16.8267 2.29332 17.2 2.90665 17.36 3.59998C17.5733 4.23998 17.6533 5.06665 17.6 6.07998H12.88V5.83998C12.8267 5.30665 12.72 4.95998 12.56 4.79998C12.4 4.63998 12 4.53332 11.36 4.47998C10.9333 4.42665 10.1067 4.39998 8.88 4.39998C7.70667 4.39998 6.90667 4.42665 6.48 4.47998C5.73333 4.53332 5.28 4.63998 5.12 4.79998C4.96 4.95998 4.85333 5.27998 4.8 5.75998C4.74667 6.07998 4.72 6.82665 4.72 7.99998C4.72 9.11998 4.74667 9.83998 4.8 10.16C4.8 10.5867 4.88 10.9066 5.04 11.12C5.25333 11.28 5.73333 11.3866 6.48 11.44C6.90667 11.4933 7.73333 11.52 8.96 11.52C10.1867 11.52 10.9867 11.4933 11.36 11.44C12 11.3866 12.4 11.28 12.56 11.12C12.72 10.96 12.8267 10.8 12.88 10.64C12.9333 10.4267 12.9867 10.08 13.04 9.59998ZM48.72 6.39999C50.4267 6.50665 51.6267 6.87998 52.32 7.51999C53.0667 8.15999 53.44 9.30665 53.44 10.96C53.44 12.2933 53.0933 13.3067 52.4 14C51.9733 14.4267 51.5733 14.7466 51.2 14.96C50.72 15.1733 50.0533 15.3333 49.2 15.44C48.3467 15.4933 46.9867 15.52 45.12 15.52C43.3067 15.52 41.9467 15.4667 41.04 15.36C40.1333 15.2533 39.44 15.0933 38.96 14.88C38.5867 14.72 38.1867 14.4533 37.76 14.08C37.3867 13.6533 37.12 13.0933 36.96 12.4C36.9067 12.0266 36.88 11.4933 36.88 10.8H41.52C41.52 11.28 41.68 11.6267 42 11.84C42.32 12 42.9333 12.08 43.84 12.08H46.48C47.3867 12.08 48 12.0266 48.32 11.92C48.64 11.76 48.8 11.4133 48.8 10.88C48.8 10.4533 48.6933 10.1867 48.48 10.08C48.2667 9.91999 47.84 9.81332 47.2 9.75998L40.96 9.43998C38.24 9.33332 36.88 7.89332 36.88 5.11998C36.88 4.53332 36.96 3.97332 37.12 3.43998C37.3333 2.74665 37.6533 2.21332 38.08 1.83998C38.6133 1.30665 39.44 0.959985 40.56 0.799984C41.2533 0.693317 42.64 0.639984 44.72 0.639984C46.96 0.639984 48.4267 0.693317 49.12 0.799984C50.24 0.959985 51.04 1.30665 51.52 1.83998C52.0533 2.31999 52.4 2.87998 52.56 3.51998C52.72 3.99998 52.8 4.58665 52.8 5.27998H48.16C48.16 4.69332 48 4.34665 47.68 4.23998C47.36 4.07998 46.6133 3.99998 45.44 3.99998H44.24C43.0133 3.99998 42.2667 4.05332 42 4.15998C41.5733 4.26665 41.36 4.55998 41.36 5.03998C41.36 5.51998 41.4667 5.83998 41.68 5.99998C41.8933 6.10665 42.24 6.15998 42.72 6.15998H43.2L48.72 6.39999ZM55.2 0.879982V15.2H59.92V0.879982H55.2ZM78.48 1.91998C79.12 2.55998 79.52 3.27998 79.68 4.07998C79.8933 4.87998 80 6.18665 80 7.99998C80 9.81332 79.8933 11.12 79.68 11.92C79.52 12.72 79.12 13.44 78.48 14.08C77.84 14.72 76.88 15.12 75.6 15.28C74.64 15.44 73.12 15.52 71.04 15.52C68.96 15.52 67.4667 15.44 66.56 15.28C65.2267 15.12 64.24 14.72 63.6 14.08C62.96 13.44 62.5333 12.72 62.32 11.92C62.16 11.12 62.08 9.81332 62.08 7.99998C62.08 6.18665 62.16 4.87998 62.32 4.07998C62.5333 3.27998 62.96 2.55998 63.6 1.91998C64.24 1.27998 65.2 0.879982 66.48 0.719982C67.3867 0.559981 68.9067 0.47998 71.04 0.47998C73.1733 0.47998 74.6933 0.559981 75.6 0.719982C76.88 0.879982 77.84 1.27998 78.48 1.91998ZM74.8 11.12C75.0133 10.9066 75.1467 10.6133 75.2 10.24C75.2533 9.81332 75.28 9.06665 75.28 7.99998C75.28 6.93332 75.2533 6.21332 75.2 5.83998C75.1467 5.41332 75.0133 5.11998 74.8 4.95998C74.64 4.74665 74.2133 4.61332 73.52 4.55998C73.0933 4.50665 72.2667 4.47998 71.04 4.47998C69.8667 4.47998 69.04 4.50665 68.56 4.55998C67.8667 4.61332 67.4133 4.74665 67.2 4.95998C67.04 5.11998 66.9333 5.41332 66.88 5.83998C66.8267 6.21332 66.8 6.93332 66.8 7.99998C66.8 9.06665 66.8267 9.81332 66.88 10.24C66.9333 10.6133 67.04 10.9066 67.2 11.12C67.4133 11.28 67.8667 11.3866 68.56 11.44C69.04 11.4933 69.8667 11.52 71.04 11.52C72.2667 11.52 73.0933 11.4933 73.52 11.44C74.2133 11.3866 74.64 11.28 74.8 11.12Z" fill="#222222"></path></svg>