<svg xmlns="http://www.w3.org/2000/svg" width="80" height="24" viewBox="0 0 80 24" fill="none"><path d="M55.2 0.0800781V23.9201H80V0.0800781H55.2ZM74.56 18.4801C72.8 19.4401 70.8 19.9201 68.56 19.9201C66.7467 19.9201 65.1733 19.5734 63.84 18.8801C62.6133 18.0801 61.6 17.0667 60.8 15.8401C60.0533 14.3467 59.68 12.9334 59.68 11.6001C59.68 9.14674 60.56 7.12008 62.32 5.52008C64.08 3.86674 66.16 3.04008 68.56 3.04008C70.32 3.04008 72.2667 3.49341 74.4 4.40008L74.32 6.96008C72.4 5.84008 70.5067 5.28008 68.64 5.28008C66.7733 5.28008 65.2 5.89341 63.92 7.12008C62.6933 8.29341 62.08 9.76008 62.08 11.5201C62.08 13.2801 62.6933 14.7734 63.92 16.0001C65.2 17.1734 66.8 17.7601 68.72 17.7601C70.64 17.7601 72.5867 17.1467 74.56 15.9201V18.4801ZM27.68 23.9201H52.4V0.0800781H27.68V23.9201ZM35.28 3.68008H39.52C40.96 3.68008 42.0267 3.86674 42.72 4.24008C43.4133 4.56008 44 5.04008 44.48 5.68008C44.8533 6.26675 45.04 7.01341 45.04 7.92008C45.04 9.57341 44.2133 10.7201 42.56 11.3601C43.7867 11.6267 44.7467 12.1334 45.44 12.8801C46.0267 13.5734 46.3733 14.4801 46.48 15.6001C46.48 16.4001 46.2667 17.1467 45.84 17.8401C45.3067 18.5867 44.6667 19.1201 43.92 19.4401C42.96 19.8667 41.92 20.0801 40.8 20.0801H35.28V3.68008ZM41.84 10.0001C42.3733 9.36008 42.64 8.72008 42.64 8.08008C42.64 6.48008 41.6267 5.68008 39.6 5.68008H37.6V10.6401H39.12C40.3467 10.6401 41.2533 10.4267 41.84 10.0001ZM43.68 16.7201C43.9467 16.2934 44.08 15.8667 44.08 15.4401C43.9733 14.8001 43.8133 14.3467 43.6 14.0801C43.3867 13.6001 42.9867 13.2801 42.4 13.1201C41.7067 12.8534 40.8267 12.7467 39.76 12.8001H37.6V18.0001H39.92C41.0933 18.0001 41.9467 17.9201 42.48 17.7601C43.0667 17.4401 43.4667 17.0934 43.68 16.7201ZM0 23.9201H24.8V0.0800781H0V23.9201ZM7.52 3.68008H11.84C13.1733 3.68008 14.24 3.84008 15.04 4.16008C15.7333 4.42675 16.32 4.96008 16.8 5.76008C17.12 6.24008 17.3333 6.96008 17.44 7.92008C17.3867 9.46675 16.5333 10.6401 14.88 11.4401C16.0533 11.6001 17.0133 12.0801 17.76 12.8801C18.4533 13.5734 18.8 14.4801 18.8 15.6001C18.8 16.5067 18.5867 17.2801 18.16 17.9201C17.7867 18.5067 17.1467 19.0134 16.24 19.4401C15.3333 19.8667 14.2933 20.0801 13.12 20.0801H7.52V3.68008ZM14.16 10.0001C14.6933 9.46674 14.96 8.82675 14.96 8.08008C14.96 7.33341 14.6933 6.74674 14.16 6.32008C13.68 5.89341 12.9333 5.68008 11.92 5.68008H9.92V10.6401H11.52C12.6933 10.6401 13.5733 10.4267 14.16 10.0001ZM16 16.8001C16.16 16.5334 16.2933 16.0801 16.4 15.4401C16.2933 14.8534 16.1333 14.4001 15.92 14.0801C15.6 13.6001 15.2 13.2801 14.72 13.1201C14.24 12.9067 13.36 12.8001 12.08 12.8001H9.92V18.0001H12.24C13.4667 18.0001 14.3467 17.9201 14.88 17.7601C15.2533 17.5467 15.6267 17.2267 16 16.8001Z" fill="black"></path></svg>