<svg xmlns="http://www.w3.org/2000/svg" width="82" height="30" viewBox="0 0 82 30" fill="none"><path d="M80.92 13.2399C80.6 9.98659 79.2667 7.23992 76.92 4.99992C74.7333 2.86659 72.0933 1.55992 69 1.07992C65.8 0.653255 62.8133 1.23992 60.04 2.83992C59.8267 2.94659 59.48 3.10659 59 3.31992L58.2 3.71992L58.04 3.63992C57.88 3.58659 57.7467 3.50659 57.64 3.39992C55.5067 1.95992 53.16 1.15992 50.6 0.99992C48.0933 0.839922 45.72 1.31992 43.48 2.43992C42.6267 2.86659 41.88 3.29326 41.24 3.71992C41.0267 3.77326 40.7333 3.66659 40.36 3.39992C38.2267 2.01326 35.9333 1.21325 33.48 0.99992C31.08 0.786586 28.76 1.21325 26.52 2.27992C25.6667 2.65325 24.7867 3.13325 23.88 3.71992C23.6667 3.77326 23.4267 3.69326 23.16 3.47992C20.8667 1.87992 18.3067 1.02659 15.48 0.919922C14.4133 0.919922 13.2133 1.05326 11.88 1.31992C10.28 1.69326 8.73334 2.38659 7.24001 3.39992C4.89334 4.89326 3.21334 6.78659 2.20001 9.07992C1.18667 11.3199 0.81334 13.8799 1.08001 16.7599C1.40001 19.9599 2.73334 22.7066 5.08001 24.9999C7.26667 27.1333 9.90667 28.4133 13 28.8399C16.2 29.3199 19.1867 28.7333 21.96 27.0799L23.8 26.2799C23.9067 26.2799 24.04 26.3333 24.2 26.4399L24.44 26.5199C26.52 28.0133 28.8133 28.8399 31.32 28.9999C33.88 29.1599 36.28 28.6533 38.52 27.4799C39.0533 27.2666 39.8 26.8399 40.76 26.1999C41.08 26.1999 41.3733 26.3066 41.64 26.5199C43.72 27.9599 45.9867 28.7866 48.44 28.9999C50.8933 29.1599 53.24 28.7066 55.48 27.6399C56.3867 27.2133 57.2667 26.7333 58.12 26.1999C58.3867 26.1999 58.6267 26.2799 58.84 26.4399C61.1333 28.0399 63.6933 28.8933 66.52 28.9999C67.64 29.0533 68.8667 28.9199 70.2 28.5999C71.8533 28.1733 73.3733 27.4799 74.76 26.5199C77.1067 25.0799 78.7867 23.2399 79.8 20.9999C80.8133 18.7066 81.1867 16.1199 80.92 13.2399ZM60.84 23.6399C64.68 17.8266 64.68 12.0399 60.84 6.27992C61 6.11992 61.1867 5.98659 61.4 5.87992C61.88 5.55992 62.4133 5.26659 63 4.99992C64.7067 4.35992 66.4933 4.14659 68.36 4.35992C70.44 4.67992 72.2267 5.50659 73.72 6.83992C75.2667 8.11992 76.36 9.63992 77 11.3999C77.64 13.1599 77.8 14.9733 77.48 16.8399C77.16 18.7066 76.36 20.3866 75.08 21.8799C73.8533 23.3733 72.36 24.4399 70.6 25.0799C68.8933 25.6666 67.16 25.8533 65.4 25.6399C63.64 25.3733 62.12 24.7066 60.84 23.6399ZM38.52 23.7199C37.4 24.5199 36.12 25.0799 34.68 25.3999C33.24 25.7199 31.72 25.7199 30.12 25.3999C28.5733 25.0799 27.2667 24.4666 26.2 23.5599C28.1733 20.9466 29.1333 18.0666 29.08 14.9199C29.08 11.7733 28.12 8.89326 26.2 6.27992C27.5333 5.31992 29 4.70659 30.6 4.43992C32.04 4.22659 33.4533 4.30659 34.84 4.67992C36.28 4.99992 37.5067 5.55992 38.52 6.35992C34.6267 12.1733 34.6267 17.9599 38.52 23.7199ZM23.72 8.83992C25 10.5466 25.64 12.5999 25.64 14.9999C25.6933 17.3466 25.08 19.3466 23.8 20.9999C22.9467 20.0399 22.3333 18.8133 21.96 17.3199C21.64 15.8266 21.6133 14.3066 21.88 12.7599C22.2 11.2133 22.8133 9.90659 23.72 8.83992ZM40.92 8.83992C42.3067 10.3866 43 12.3599 43 14.7599C43.0533 17.1599 42.4133 19.2666 41.08 21.0799C39.7467 19.5866 39.0533 17.6399 39 15.2399C39 12.8399 39.64 10.7066 40.92 8.83992ZM43.48 23.5599C47.4267 17.7999 47.4267 12.0399 43.48 6.27992H43.56C44.52 5.47992 45.7467 4.91992 47.24 4.59992C48.7867 4.27992 50.3333 4.27992 51.88 4.59992C53.48 4.86659 54.7867 5.45325 55.8 6.35992C53.88 9.02659 52.92 11.9333 52.92 15.0799C52.92 18.2266 53.88 21.0799 55.8 23.6399C54.68 24.5466 53.2133 25.1866 51.4 25.5599C50.0133 25.7733 48.6 25.7199 47.16 25.3999C45.72 25.0266 44.4933 24.4133 43.48 23.5599ZM58.2 8.91992C59.1067 9.87992 59.72 11.1066 60.04 12.5999C60.36 14.0933 60.36 15.6133 60.04 17.1599C59.7733 18.7066 59.1867 20.0133 58.28 21.0799C57 19.4266 56.3333 17.3999 56.28 14.9999C56.28 12.5999 56.92 10.5733 58.2 8.91992ZM20.6 24.1199C20.5467 24.1733 20.44 24.2266 20.28 24.2799C19.7467 24.5999 19.32 24.8133 19 24.9199C17.3467 25.6133 15.5867 25.8266 13.72 25.5599C11.64 25.2933 9.80001 24.4933 8.20001 23.1599C6.70667 21.8799 5.64001 20.3599 5.00001 18.5999C4.41334 16.7866 4.25334 14.9466 4.52001 13.0799C4.84001 11.2133 5.64001 9.53326 6.92001 8.03992C8.09334 6.65326 9.58667 5.61325 11.4 4.91992C13.1067 4.33325 14.84 4.17326 16.6 4.43992C18.36 4.65326 19.88 5.29325 21.16 6.35992C17.32 12.1733 17.32 17.9333 21.16 23.6399L20.6 24.1199Z" fill="#222222"></path></svg>