<svg width="125" height="28" viewBox="0 0 125 28" fill="none" xmlns="http://www.w3.org/2000/svg">
<g clip-path="url(#clip0_385_242)">
<path d="M0.571744 0H6.23694C6.64325 0 6.90156 0.173772 7.01184 0.521315L13.6551 19.1206H13.7364L20.3767 0.521315C20.4841 0.173772 20.7424 0 21.1516 0H26.8168C27.197 0 27.3886 0.148133 27.3886 0.438702C27.3886 0.518466 27.374 0.626717 27.3479 0.757758L17.161 27.4787C17.0507 27.8262 16.8069 28 16.4267 28H10.9618C10.5816 28 10.3378 27.8262 10.2275 27.4787L0.0406315 0.760606C0.0145113 0.626717 0 0.521315 0 0.438702C0 0.148133 0.188646 0 0.571744 0Z" fill="white"/>
<path d="M55.9932 27.359V0.64096C55.9932 0.213653 56.2108 0 56.6462 0H66.2642C70.5305 0 74.0132 1.29901 76.7181 3.89989C79.4201 6.50076 80.7726 9.86794 80.7726 14.0014C80.7726 18.1349 79.4201 21.5021 76.7181 24.103C74.0132 26.7038 70.5305 28.0029 66.2642 28.0029H56.6462C56.2108 28 55.9932 27.7863 55.9932 27.359ZM66.1423 22.0006C68.5599 22.0006 70.4696 21.2884 71.8685 19.8612C73.2674 18.434 73.9668 16.4798 73.9668 14.0014C73.9668 11.5202 73.2674 9.56883 71.8685 8.14162C70.4696 6.71442 68.5599 6.00224 66.1423 6.00224H62.5958V22.0035H66.1423V22.0006Z" fill="white"/>
<path d="M86.1506 0H91.4065C91.868 0 92.1002 0.213653 92.1002 0.64096V27.3619C92.1002 27.7892 91.868 28.0029 91.4065 28.0029H86.1506C85.7152 28.0029 85.4976 27.7892 85.4976 27.3619V0.64096C85.4976 0.213653 85.7152 0 86.1506 0Z" fill="white"/>
<path d="M50.3832 5.99939H31.5882C31.179 5.99939 30.8481 5.67464 30.8481 5.27297V0.726422C30.8481 0.324753 31.179 0 31.5882 0H50.3832C50.7924 0 51.1233 0.324753 51.1233 0.726422V5.27297C51.1233 5.67464 50.7924 5.99939 50.3832 5.99939Z" fill="white"/>
<path d="M50.3832 17.0013H31.5882C31.179 17.0013 30.8481 16.6765 30.8481 16.2748V11.7254C30.8481 11.3238 31.179 10.999 31.5882 10.999H50.3832C50.7924 10.999 51.1233 11.3238 51.1233 11.7254V16.272C51.1233 16.6765 50.7924 17.0013 50.3832 17.0013Z" fill="white"/>
<path d="M50.3832 27.9999H31.5882C31.179 27.9999 30.8481 27.6751 30.8481 27.2735V22.7269C30.8481 22.3252 31.179 22.0005 31.5882 22.0005H50.3832C50.7924 22.0005 51.1233 22.3252 51.1233 22.7269V27.2735C51.1233 27.6751 50.7924 27.9999 50.3832 27.9999Z" fill="white"/>
<path d="M115.594 13.3179L108.405 8.19024C108.141 8.00223 107.79 7.97374 107.502 8.11902C107.212 8.26431 107.029 8.55773 107.029 8.87678V19.1321C107.029 19.4541 107.212 19.7475 107.502 19.8899C107.624 19.9497 107.761 19.9811 107.897 19.9811C108.074 19.9811 108.254 19.9269 108.405 19.8158L115.594 14.691C115.82 14.5258 115.954 14.2751 115.954 14.0045C115.954 13.731 115.817 13.4803 115.594 13.3179Z" fill="#FD6500"/>
<path d="M110.747 0C102.873 0 96.4941 6.26147 96.4941 13.99C96.4941 21.7157 102.873 27.9744 110.747 27.9744C118.618 27.9744 124.997 21.7129 124.997 13.99C125 6.26147 118.618 0 110.747 0ZM110.747 25.6384C104.191 25.6384 98.8769 20.4253 98.8769 13.9872C98.8769 7.55479 104.191 2.3331 110.747 2.3331C117.303 2.3331 122.617 7.55194 122.617 13.9872C122.617 20.4253 117.303 25.6384 110.747 25.6384Z" fill="#FD6500"/>
</g>
<defs>
<clipPath id="clip0_385_242">
<rect width="125" height="28" fill="white"/>
</clipPath>
</defs>
</svg>
